<svg width="20" height="20" viewBox="0 0 20 20" fill="none" xmlns="http://www.w3.org/2000/svg">
<path d="M19.0001 10.79C18.8427 12.4922 18.2039 14.1144 17.1583 15.4668C16.1127 16.8192 14.7035 17.8458 13.0958 18.4265C11.488 19.0073 9.74804 19.1181 8.07956 18.7461C6.41107 18.3741 4.88305 17.5345 3.67428 16.3258C2.46551 15.117 1.62599 13.589 1.25396 11.9205C0.881929 10.252 0.99277 8.51208 1.57351 6.9043C2.15426 5.29651 3.18088 3.88737 4.53327 2.84175C5.88565 1.79614 7.50785 1.15731 9.21005 1C8.21347 2.34827 7.7339 4.00945 7.85859 5.68141C7.98327 7.35338 8.70392 8.92506 9.88946 10.1106C11.075 11.2961 12.6467 12.0168 14.3186 12.1415C15.9906 12.2662 17.6518 11.7866 19.0001 10.79Z" stroke="#111827" stroke-width="2" stroke-linecap="round" stroke-linejoin="round"/>
</svg>
