<svg width="24" height="24" viewBox="0 0 24 24" fill="none" xmlns="http://www.w3.org/2000/svg">
    <path fill-rule="evenodd" clip-rule="evenodd" d="M12 4.64C14.2534 4.64 15.7734 5.61333 16.64 6.42667L20.0267 3.12C17.9467 1.18667 15.24 0 12 0C7.3067 0 3.25336 2.69333 1.28003 6.61333L5.16003 9.62667C6.13336 6.73333 8.8267 4.64 12 4.64Z" fill="#EA4335"/>
    <path fill-rule="evenodd" clip-rule="evenodd" d="M23.52 12.2668C23.52 11.2801 23.44 10.5601 23.2667 9.81348H12V14.2668H18.6133C18.48 15.3735 17.76 17.0401 16.16 18.1601L19.9467 21.0935C22.2133 19.0001 23.52 15.9201 23.52 12.2668Z" fill="#4285F4"/>
    <path fill-rule="evenodd" clip-rule="evenodd" d="M5.17333 14.3733C4.92 13.6266 4.77333 12.8266 4.77333 11.9999C4.77333 11.1733 4.92 10.3733 5.16 9.62661L1.28 6.61328C0.466667 8.23995 0 10.0666 0 11.9999C0 13.9333 0.466667 15.7599 1.28 17.3866L5.17333 14.3733Z" fill="#FBBC05"/>
    <path fill-rule="evenodd" clip-rule="evenodd" d="M12.0004 24C15.2404 24 17.9604 22.9333 19.947 21.0933L16.1604 18.16C15.147 18.8666 13.787 19.36 12.0004 19.36C8.82704 19.36 6.1337 17.2666 5.1737 14.3733L1.2937 17.3866C3.26703 21.3066 7.30704 24 12.0004 24Z" fill="#34A853"/>
</svg>
